<?xml version="1.0" encoding="utf-8"?>
<!-- Generator: Adobe Illustrator 16.0.0, SVG Export Plug-In . SVG Version: 6.00 Build 0)  -->
<!DOCTYPE svg PUBLIC "-//W3C//DTD SVG 1.1//EN" "http://www.w3.org/Graphics/SVG/1.1/DTD/svg11.dtd">
<svg version="1.1" id="Layer_1" xmlns="http://www.w3.org/2000/svg" xmlns:xlink="http://www.w3.org/1999/xlink" x="0px" y="0px"
	 width="1000px" height="1000px" viewBox="0 0 1000 1000" enable-background="new 0 0 1000 1000" xml:space="preserve">
<g>
	<path fill="#FF8303" d="M232.816,519.479c6.924,10.665,10.642,25.986,16.592,37.542c15.043,29.248,33.6,56.439,55.284,80.123
		c74.374,81.193,188.052,105.812,287.918,76.049c32.201-9.605,53.971-22.749,80.697-44.766
		c19.546-16.101,38.434-35.369,49.878-59.442C723.186,608.984,449.057,779.003,232.816,519.479z"/>
	<path fill="#FF8303" d="M591.559,42.554C408.171-8.485,222.967,81.44,177.892,243.396
		c-45.068,161.958,67.057,334.621,250.446,385.662c183.392,51.037,368.596-38.882,413.664-200.842
		C887.076,266.258,774.947,93.593,591.559,42.554z M802.825,417.309c-39.754,142.843-203.104,222.159-364.854,177.143
		c-161.751-45.019-260.65-197.303-220.893-340.153c39.754-142.843,203.101-222.155,364.85-177.14
		C743.681,122.173,842.58,274.466,802.825,417.309z"/>
	<path fill="#FF8303" d="M196.336,160.719C159.134,135.625,15.449,31.312,173.54,203.8
		C181.193,185.772,185.398,176.565,196.336,160.719z"/>
	<path fill="#FF8303" d="M577.412,101.587c-151.595-42.189-304.694,32.14-341.954,166.024
		c-37.26,133.879,55.431,276.609,207.031,318.803c151.596,42.188,304.689-32.146,341.95-166.029
		C821.7,286.506,729.008,143.774,577.412,101.587z M718.336,359.569c-42.418,72.269-81.362-43.628-183.212-90.334
		c-101.848-46.708-228.034-6.539-185.608-78.811c42.434-72.274,159.392-93,261.241-46.289
		C712.606,190.842,760.771,287.296,718.336,359.569z"/>
	<path fill="#FF8303" d="M274.428,79.009c-26.124-24.005-69.937-60.481-105.464-52.367c-8.961,2.05-77.725,51.911-62.033,61.027
		c0.008,0.004,75.98,44.127,99.795,57.956C225.535,120.115,248.424,97.753,274.428,79.009z"/>
	<path fill="#FF8303" d="M837.801,223.42c31.476,64.97,40.635,138.174,20.813,209.416c-11.268,40.489-30.898,76.681-56.837,107.617
		c-0.456,22.239-3.653,44.699-9.861,66.998c-42.28,151.929-207.259,238.72-368.473,193.854
		c-148.357-41.291-241.828-179.684-222.843-319.893c-45.894-72.569-62.593-158.96-39.31-242.637c0.753-2.708,1.552-5.399,2.378-8.07
		c-4.818-5.346-9.305-10.409-13.475-15.186C100.997,265.675,63.76,327.861,43.887,399.275
		c-66.064,237.39,84.586,486.666,336.488,556.769c251.903,70.104,509.675-65.501,575.739-302.9
		C999.599,496.887,949.188,335.484,837.801,223.42z"/>
</g>
</svg>
